<?xml version="1.0" standalone="no"?><!DOCTYPE svg PUBLIC "-//W3C//DTD SVG 1.1//EN"
    "http://www.w3.org/Graphics/SVG/1.1/DTD/svg11.dtd">
<svg t="1617242037368" class="icon" viewBox="0 0 1024 1024" version="1.1" xmlns="http://www.w3.org/2000/svg" p-id="1649"
     xmlns:xlink="http://www.w3.org/1999/xlink" width="200" height="200">
  <defs>
    <style type="text/css"></style>
  </defs>
  <path
      d="M440.25463868 519.16857911c-2.30712891 0-4.61425781-0.32958984-6.83898926-1.071167-11.70043945-3.7902832-18.12744141-16.31469727-14.33715819-28.01513672 8.40454102-26.03759766 26.53198242-47.21374512 50.92163085-59.73815918 24.38964844-12.44201661 52.15759278-14.66674805 78.19519043-6.26220704 11.70043945 3.7902832 18.12744141 16.31469727 14.3371582 28.01513672-3.7902832 11.70043945-16.31469727 18.12744141-28.01513672 14.33715821-14.74914551-4.77905273-30.48706055-3.54309083-44.24743652 3.54309082-13.76037598 7.08618164-24.06005859 19.03381348-28.75671387 33.78295899-3.21350098 9.39331055-11.86523438 15.4083252-21.25854492 15.4083252zM355.22045899 486.45678711c-2.30712891 0-4.61425781-0.32958984-6.83898926-1.071167-11.70043945-3.7902832-18.12744141-16.31469727-14.33715819-28.01513671C349.37023926 409.99194336 382.24682618 371.5123291 426.57666017 348.85302734c44.32983398-22.65930176 94.83947754-26.69677734 142.13562012-11.28845215 11.70043945 3.7902832 18.12744141 16.31469727 14.33715819 28.01513673s-16.31469727 18.12744141-28.01513672 14.33715819c-36.00769043-11.70043945-74.48730469-8.56933594-108.1878662 8.65173341-33.70056153 17.22106934-58.74938965 46.55456543-70.44982911 82.64465332-3.04870606 9.31091309-11.78283692 15.24353028-21.17614746 15.24353027z"
      p-id="1650"></path>
  <path
      d="M499.36267069 542.4514772a26.3671875 26.3671875 0 1 0 46.39559519-25.06717061 26.3671875 26.3671875 0 1 0-46.39559519 25.06717061Z"
      p-id="1651"></path>
  <path
      d="M721.64196779 477.31066894c-7.91015625 0-15.57312012-4.20227051-19.61059571-11.70043945l-36.25488282-67.15393066c-5.85021973-10.79406739-1.81274414-24.30725098 8.98132325-30.1574707 10.79406739-5.85021973 24.30725098-1.81274414 30.1574707 8.98132324l36.25488282 67.15393066c5.85021973 10.79406739 1.81274414 24.30725098-8.98132325 30.1574707-3.29589844 1.89514161-6.92138672 2.71911622-10.54687499 2.71911622z"
      p-id="1652"></path>
  <path
      d="M464.56188966 851.72473145c-5.93261719 0-11.94763184-0.98876953-17.79785157-3.13110352-13.51318359-4.69665528-24.71923828-14.41955567-31.72302246-27.35595704L171.96850587 371.26513672c-14.83154297-27.4383545-5.76782227-61.05651856 20.10498047-75.06408692L508.23254396 125.47351074c12.93640137-7.00378418 27.8503418-8.07495117 42.10510253-3.04870605 13.51318359 4.69665528 24.71923828 14.41955567 31.72302246 27.35595703l122.93701173 227.58178711c5.85021973 10.79406739 1.81274414 24.30725098-8.98132325 30.1574707-10.79406739 5.85021973-24.30725098 1.81274414-30.1574707-8.98132325L542.92187501 170.95690918c-1.64794922-3.13110352-4.36706543-5.52062989-7.33337403-6.50939941-1.56555176-0.57678223-3.95507813-0.98876953-6.17980956 0.24719238L213.24963379 335.33984375c-4.20227051 2.30712891-5.19104004 9.0637207-2.14233397 14.74914551l243.07250976 449.97253418c1.64794922 3.13110352 4.36706543 5.52062989 7.33337402 6.50939942 1.56555176 0.57678223 3.95507813 0.98876953 6.17980958-0.24719239L783.76965333 635.59619141c2.22473145-1.23596192 3.21350098-3.3782959 3.54309082-5.02624513 0.74157715-3.04870606 0.24719239-6.59179688-1.4831543-9.72290038l-20.6817627-38.23242188c-5.85021973-10.79406739-1.81274414-24.30725098 8.98132325-30.1574707 10.79406739-5.85021973 24.30725098-1.81274414 30.1574707 8.98132324l20.6817627 38.23242188c7.00378418 12.93640137 8.89892578 27.68554688 5.52062988 41.52832031-3.62548828 14.66674805-12.68920898 26.53198242-25.62561035 33.53576661L488.86914064 845.54492188c-7.58056641 4.11987305-15.8203125 6.17980958-24.30725099 6.17980957z"
      p-id="1653"></path>
</svg>